<?xml version="1.0" encoding="UTF-8"?>
<svg version="1.1" xmlns="http://www.w3.org/2000/svg" width="60" height="60">
<path d="M0 0 C14.52 0 29.04 0 44 0 C44 2.64 44 5.28 44 8 C46.64 8 49.28 8 52 8 C52 22.52 52 37.04 52 52 C50.68 52 49.36 52 48 52 C48 53.32 48 54.64 48 56 C46.68 56 45.36 56 44 56 C44 57.32 44 58.64 44 60 C29.48 60 14.96 60 0 60 C0 57.36 0 54.72 0 52 C-2.64 52 -5.28 52 -8 52 C-8 37.48 -8 22.96 -8 8 C-5.36 8 -2.72 8 0 8 C0 5.36 0 2.72 0 0 Z " fill="#792FCD" transform="translate(8,0)"/>
<path d="M0 0 C3.16361038 1.34721544 4.60095638 2.6071946 6.5 5.4375 C10.4764238 10.3822757 16.00637632 10.98166588 22 12 C21.11785247 20.44609341 21.11785247 20.44609341 20.375 23.9375 C19.83291064 28.36456307 20.43395111 32.59352712 21 37 C19.02 37 17.04 37 15 37 C15 37.66 15 38.32 15 39 C14.13375 39.185625 13.2675 39.37125 12.375 39.5625 C7.96315113 41.44162082 5.83735927 44.23697742 3 48 C0.54475314 47.62026902 -0.67337356 47.39732912 -2.28125 45.44140625 C-2.6834375 44.82136719 -3.085625 44.20132813 -3.5 43.5625 C-6.36717215 39.94158671 -8.72964236 39.34716942 -13.25 38.6875 C-14.28640625 38.58824219 -15.3228125 38.48898438 -16.390625 38.38671875 C-19 38 -19 38 -21 36 C-20.72267074 33.36537203 -20.21334599 31.38904269 -18.9375 29.0625 C-17.64884848 26.22746665 -17.74798933 24.08713071 -18 21 C-18.63903117 19.32254318 -19.30341637 17.65438613 -20 16 C-20 14.68 -20 13.36 -20 12 C-15.9472484 11.01751476 -12.16138263 10.91840426 -8 11 C-7.73445313 10.41734375 -7.46890625 9.8346875 -7.1953125 9.234375 C-5.96697004 6.93825772 -4.59685061 5.19643982 -2.875 3.25 C-2.33617188 2.63640625 -1.79734375 2.0228125 -1.2421875 1.390625 C-0.83226563 0.93171875 -0.42234375 0.4728125 0 0 Z " fill="#F5EEE7" transform="translate(29,6)"/>
<path d="M0 0 C0.66 0 1.32 0 2 0 C2.350625 0.9075 2.70125 1.815 3.0625 2.75 C5.54761219 6.91857529 7.70195737 7.89152626 12 10 C10.68 10.33 9.36 10.66 8 11 C8 11.66 8 12.32 8 13 C8.66 13 9.32 13 10 13 C11.4606285 15.64738916 12 16.89448334 12 20 C11.01 20.495 11.01 20.495 10 21 C12.475 21.99 12.475 21.99 15 23 C15 23.66 15 24.32 15 25 C14.13375 25.185625 13.2675 25.37125 12.375 25.5625 C7.96315113 27.44162082 5.83735927 30.23697742 3 34 C0.54475314 33.62026902 -0.67337356 33.39732912 -2.28125 31.44140625 C-2.6834375 30.82136719 -3.085625 30.20132813 -3.5 29.5625 C-6.36717215 25.94158671 -8.72964236 25.34716942 -13.25 24.6875 C-14.28640625 24.58824219 -15.3228125 24.48898438 -16.390625 24.38671875 C-19 24 -19 24 -21 22 C-20.64700993 18.55834679 -19.95418308 16.93127462 -18 14 C-18 16.31 -18 18.62 -18 21 C-16.35492782 21.19406478 -14.70890406 21.38007935 -13.0625 21.5625 C-12.14597656 21.66691406 -11.22945312 21.77132812 -10.28515625 21.87890625 C-9.53105469 21.91886719 -8.77695312 21.95882812 -8 22 C-7.67 21.67 -7.34 21.34 -7 21 C-7.99 20.67 -8.98 20.34 -10 20 C-9.37240135 17.07120629 -8.41377341 14.63904371 -7 12 C-7.99 11.34 -8.98 10.68 -10 10 C-9.44570313 9.69707031 -8.89140625 9.39414062 -8.3203125 9.08203125 C-3.62776126 6.44119287 -3.62776126 6.44119287 -0.5 2.1875 C-0.335 1.465625 -0.17 0.74375 0 0 Z " fill="#EEE4E8" transform="translate(29,20)"/>
<path d="M0 0 C4.62 1.32 9.24 2.64 14 4 C13.09063444 12.57401813 13.09063444 12.57401813 12.375 15.9375 C11.83291064 20.36456307 12.43395111 24.59352712 13 29 C11.39667209 29.08121924 9.79215974 29.13929134 8.1875 29.1875 C6.84751953 29.23970703 6.84751953 29.23970703 5.48046875 29.29296875 C2.58352485 28.95081002 1.77444972 28.24606427 0 26 C1.32 26 2.64 26 4 26 C3.67 25.401875 3.34 24.80375 3 24.1875 C2 22 2 22 2 19 C1.34 19 0.68 19 0 19 C0 18.34 0 17.68 0 17 C0.99 16.67 1.98 16.34 3 16 C2.34 15.34 1.68 14.68 1 14 C2.32 11.36 3.64 8.72 5 6 C4.34 5.67 3.68 5.34 3 5 C3.33 4.67 3.66 4.34 4 4 C2.68 3.34 1.36 2.68 0 2 C0 1.34 0 0.68 0 0 Z " fill="#F2E9E8" transform="translate(37,14)"/>
<path d="M0 0 C0.66 0 1.32 0 2 0 C2.350625 0.9075 2.70125 1.815 3.0625 2.75 C5.54761219 6.91857529 7.70195737 7.89152626 12 10 C11.443125 10.226875 10.88625 10.45375 10.3125 10.6875 C6.31561114 12.95600449 3.46033351 15.61899946 2 20 C1.34 20 0.68 20 0 20 C-0.350625 19.071875 -0.70125 18.14375 -1.0625 17.1875 C-3.59919019 13.0142355 -5.4710174 12.53814504 -10 11 C-9 9 -9 9 -6.125 7.75 C-2.40479896 5.66668742 -1.55576936 3.88942339 0 0 Z " fill="#8661F6" transform="translate(29,20)"/>
<path d="M0 0 C0.99 0 1.98 0 3 0 C2.93039063 0.90492187 2.93039063 0.90492187 2.859375 1.828125 C2.49704655 7.04721751 2.49704655 7.04721751 5 11.4375 C5.66 11.953125 6.32 12.46875 7 13 C7 13.66 7 14.32 7 15 C6.34 15 5.68 15 5 15 C3.57741188 18.82320557 2.75957724 21.91281305 3 26 C2.071875 26.165 1.14375 26.33 0.1875 26.5 C-3.39156248 28.1842647 -3.58971722 28.6106519 -4.875 32.125 C-5.24625 33.40375 -5.6175 34.6825 -6 36 C-9.3 35.67 -12.6 35.34 -16 35 C-10.70769231 28.10769231 -10.70769231 28.10769231 -7.125 27.5625 C-6.42375 27.706875 -5.7225 27.85125 -5 28 C-5 27.34 -5 26.68 -5 26 C-3.02 26 -1.04 26 1 26 C0.82082031 25.20078125 0.64164063 24.4015625 0.45703125 23.578125 C-1.15826638 15.23731541 -0.69491294 9.04127249 2 1 C1.34 0.67 0.68 0.34 0 0 Z " fill="#906AF0" transform="translate(49,17)"/>
<path d="M0 0 C5.28497409 0.1761658 5.28497409 0.1761658 8 1 C10.5 4.0625 10.5 4.0625 12 7 C6.76829268 9.02134146 6.76829268 9.02134146 3.75 8.9375 C2 8 2 8 0.75 5.625 C0 3 0 3 0 0 Z " fill="#7751EE" transform="translate(14,44)"/>
<path d="M0 0 C-0.99 2.64 -1.98 5.28 -3 8 C-6.3 7.67 -9.6 7.34 -13 7 C-7.73672055 0.26789838 -7.73672055 0.26789838 -4.25 -1 C-2 -1 -2 -1 0 0 Z " fill="#7750ED" transform="translate(46,45)"/>
<path d="M0 0 C2.62603509 5.06449625 4.62088079 9.16372054 4 15 C2.5 17.375 2.5 17.375 1 19 C-0.65 17.35 -2.3 15.7 -4 14 C-2.84826645 11.53199953 -1.95216435 9.95216435 0 8 C0.24212873 6.01871492 0.24212873 6.01871492 0.125 3.875 C0.08375 2.59625 0.0425 1.3175 0 0 Z " fill="#825CF0" transform="translate(8,18)"/>
<path d="M0 0 C2.31 0.33 4.62 0.66 7 1 C7 5 7 5 5 8 C2.1796875 8.51171875 2.1796875 8.51171875 -1.125 8.6875 C-2.76855469 8.78611328 -2.76855469 8.78611328 -4.4453125 8.88671875 C-5.28835938 8.92410156 -6.13140625 8.96148437 -7 9 C-3.25 7 -3.25 7 -1 7 C-0.67 4.69 -0.34 2.38 0 0 Z " fill="#825EEF" transform="translate(16,9)"/>
<path d="M0 0 C2 3 2 3 2 7 C3.32 7.33 4.64 7.66 6 8 C-2.92914798 7.96591928 -2.92914798 7.96591928 -5.5546875 5.59765625 C-6.625 3.9375 -6.625 3.9375 -8 1 C-5.21136993 -0.39431504 -3.07921132 -0.25660094 0 0 Z " fill="#7951EC" transform="translate(43,9)"/>
<path d="M0 0 C3.56311466 1.78155733 5.35645475 3.16763009 8 6 C7.67 6.66 7.34 7.32 7 8 C5.68 6.68 4.36 5.36 3 4 C-0.36591866 5.44253657 -2.51047079 7.33264727 -5 10 C-5.99 9.67 -6.98 9.34 -8 9 C-5.36 6.03 -2.72 3.06 0 0 Z " fill="#D6BEF1" transform="translate(29,6)"/>
<path d="M0 0 C0.68707555 2.49064888 1 4.37886292 1 7 C4.3 7.99 7.6 8.98 11 10 C11 10.33 11 10.66 11 11 C9.20759337 10.88610125 7.41605165 10.75852313 5.625 10.625 C4.12839844 10.52058594 4.12839844 10.52058594 2.6015625 10.4140625 C0 10 0 10 -2 8 C-1.63723355 5.17042171 -0.90305236 2.70915709 0 0 Z " fill="#C5A8F2" transform="translate(10,34)"/>
<path d="M0 0 C-0.66 1.98 -1.32 3.96 -2 6 C-3.32 5.67 -4.64 5.34 -6 5 C-6 3.68 -6 2.36 -6 1 C-4 0 -4 0 0 0 Z " fill="#9971F9" transform="translate(41,21)"/>
<path d="M0 0 C0.99 0 1.98 0 3 0 C5 3 5 3 5 6 C2.03 5.505 2.03 5.505 -1 5 C-0.67 3.35 -0.34 1.7 0 0 Z " fill="#9A6FF9" transform="translate(36,34)"/>
<path d="M0 0 C1.32 0.66 2.64 1.32 4 2 C4 2.99 4 3.98 4 5 C2.02 5.33 0.04 5.66 -2 6 C-1.49396008 3.83125748 -1.00016187 2.00032373 0 0 Z " fill="#966AF9" transform="translate(21,34)"/>
<path d="M0 0 C1.32 0 2.64 0 4 0 C4 0.66 4 1.32 4 2 C4.66 2 5.32 2 6 2 C6 2.99 6 3.98 6 5 C4.68 5.33 3.36 5.66 2 6 C1.34 4.02 0.68 2.04 0 0 Z " fill="#956BF9" transform="translate(19,21)"/>
<path d="M0 0 C0.66 0 1.32 0 2 0 C2.33 1.32 2.66 2.64 3 4 C1.35 5.32 -0.3 6.64 -2 8 C-2.66 7.67 -3.32 7.34 -4 7 C-3.525625 6.21625 -3.05125 5.4325 -2.5625 4.625 C-1.66101977 3.11051322 -0.78820515 1.5764103 0 0 Z " fill="#9F76F8" transform="translate(29,20)"/>
</svg>
